<svg xmlns="http://www.w3.org/2000/svg" preserveAspectRatio="none" width="200" height="400" viewBox="0 0 200 400" fill="none"><path d="M199.966 23.9902C194.611 23.9903 189.476 26.0927 185.689 29.835C181.903 33.5772 179.775 38.6529 179.775 43.9453C179.775 49.2378 181.903 54.3143 185.689 58.0566C189.476 61.7988 194.611 63.9013 199.966 63.9014V75.3066C194.611 75.3067 189.476 77.409 185.689 81.1514C181.903 84.8937 179.775 89.9693 179.775 95.2617C179.775 100.554 181.903 105.63 185.689 109.372C189.476 113.114 194.611 115.217 199.966 115.217V126.623C197.314 126.622 194.688 127.137 192.237 128.14C189.787 129.142 187.559 130.612 185.684 132.465C183.808 134.318 182.32 136.518 181.305 138.939C180.29 141.361 179.768 143.957 179.768 146.578C179.775 148.485 180.061 150.38 180.619 152.205C181.85 156.341 184.404 159.972 187.897 162.554C191.391 165.135 195.638 166.528 200 166.524V177.931C194.645 177.931 189.51 180.033 185.724 183.775C181.937 187.518 179.81 192.593 179.81 197.886C179.81 203.178 181.937 208.254 185.724 211.996C189.51 215.738 194.645 217.841 200 217.841V229.246C194.645 229.246 189.51 231.349 185.724 235.092C181.937 238.834 179.81 243.91 179.81 249.202C179.81 254.495 181.937 259.57 185.724 263.312C189.51 267.055 194.645 269.157 200 269.157V280.562C194.645 280.562 189.51 282.665 185.724 286.407C181.937 290.149 179.81 295.225 179.81 300.518C179.81 305.81 181.937 310.887 185.724 314.629C189.51 318.371 194.645 320.474 200 320.474V331.879C194.648 331.879 189.514 333.98 185.729 337.721C181.945 341.461 179.818 346.536 179.818 351.826C179.818 357.116 181.945 362.19 185.729 365.931C189.514 369.671 194.648 371.772 200 371.772V400H2.91504V383.414C2.91504 382.375 2.49707 381.379 1.75391 380.645C1.26336 380.16 0.657508 379.815 0 379.637V369.231C0.657424 369.053 1.26341 368.709 1.75391 368.225C2.49712 367.49 2.91504 366.494 2.91504 365.455V313.423C2.91502 312.384 2.49709 311.388 1.75391 310.653C1.26335 310.168 0.657517 309.824 0 309.646V299.266C0.657424 299.087 1.26341 298.744 1.75391 298.259C2.49709 297.524 2.91501 296.528 2.91504 295.489V243.457C2.91504 242.418 2.4971 241.422 1.75391 240.688C1.26335 240.203 0.657518 239.858 0 239.68V229.299C0.657318 229.121 1.26347 228.778 1.75391 228.293C2.49709 227.558 2.91501 226.562 2.91504 225.523V173.491C2.91504 172.452 2.49707 171.456 1.75391 170.722C1.26336 170.237 0.657509 169.892 0 169.714V159.384C0.657281 159.206 1.26348 158.863 1.75391 158.378C2.49702 157.643 2.91494 156.647 2.91504 155.608V103.576C2.91504 102.537 2.49712 101.54 1.75391 100.806C1.26342 100.321 0.657358 99.9771 0 99.7988V89.418C0.657284 89.2397 1.26348 88.8968 1.75391 88.4121C2.497 87.6777 2.91491 86.6812 2.91504 85.6426V33.6104C2.91504 32.5715 2.49712 31.5744 1.75391 30.8398C1.26343 30.3552 0.657349 30.0113 0 29.833V19.4629C0.673727 19.2881 1.29587 18.9414 1.79688 18.4463C2.53997 17.7118 2.9569 16.7154 2.95703 15.6768V0H199.966V23.9902Z" fill="black"></path></svg>