<svg xmlns="http://www.w3.org/2000/svg" preserveAspectRatio="none" width="800" height="400" viewBox="0 0 800 400" fill="none"><path d="M796.031 15.6768C796.031 16.7154 796.449 17.7118 797.192 18.4463C797.936 19.1806 798.943 19.5927 799.994 19.5928L800 19.5918V29.6943C799.984 29.6941 799.968 29.6934 799.952 29.6934C798.901 29.6934 797.893 30.1054 797.149 30.8398C796.406 31.5744 795.988 32.5715 795.988 33.6104V85.6426C795.988 86.6812 796.406 87.6777 797.149 88.4121C797.893 89.1466 798.901 89.5586 799.952 89.5586C799.968 89.5586 799.984 89.5578 800 89.5576V99.6602C799.984 99.66 799.968 99.6592 799.952 99.6592C798.901 99.6592 797.893 100.071 797.149 100.806C796.406 101.54 795.988 102.537 795.988 103.576V155.608C795.988 156.647 796.406 157.643 797.149 158.378C797.893 159.112 798.901 159.524 799.952 159.524C799.968 159.524 799.984 159.524 800 159.523V169.575C799.984 169.575 799.968 169.574 799.952 169.574C798.901 169.574 797.893 169.987 797.149 170.722C796.406 171.456 795.988 172.452 795.988 173.491V225.523C795.988 226.562 796.406 227.558 797.149 228.293C797.893 229.028 798.901 229.44 799.952 229.44C799.968 229.44 799.984 229.439 800 229.438V239.541C799.984 239.541 799.968 239.54 799.952 239.54C798.901 239.54 797.893 239.953 797.149 240.688C796.406 241.422 795.988 242.418 795.988 243.457V295.489C795.988 296.528 796.406 297.524 797.149 298.259C797.893 298.993 798.901 299.406 799.952 299.406C799.968 299.406 799.984 299.404 800 299.404V309.507C799.984 309.507 799.968 309.506 799.952 309.506C798.901 309.506 797.893 309.919 797.149 310.653C796.406 311.388 795.988 312.384 795.988 313.423V365.455C795.988 366.494 796.406 367.49 797.149 368.225C797.893 368.959 798.901 369.372 799.952 369.372C799.968 369.372 799.984 369.37 800 369.37V379.498C799.984 379.498 799.968 379.497 799.952 379.497C798.901 379.497 797.893 379.91 797.149 380.645C796.406 381.379 795.988 382.375 795.988 383.414V400H0V371.781C5.35247 371.781 10.4857 369.679 14.2705 365.938C18.0552 362.198 20.1816 357.124 20.1816 351.834C20.1816 346.544 18.0552 341.47 14.2705 337.729C10.4857 333.989 5.35245 331.888 0 331.888V320.481C5.35473 320.481 10.49 318.379 14.2764 314.637C18.0627 310.894 20.1904 305.819 20.1904 300.526C20.1904 295.234 18.0627 290.158 14.2764 286.416C10.49 282.674 5.35473 280.571 0 280.571V269.183C5.35466 269.183 10.49 267.08 14.2764 263.338C18.0627 259.596 20.1903 254.52 20.1904 249.228C20.1904 243.935 18.0627 238.859 14.2764 235.116C10.49 231.374 5.35462 229.271 0 229.271V217.866C5.3547 217.866 10.49 215.764 14.2764 212.021C18.0627 208.279 20.1904 203.204 20.1904 197.911C20.1904 192.619 18.0627 187.543 14.2764 183.801C10.49 180.058 5.35473 177.956 0 177.956V166.55C5.35473 166.55 10.49 164.447 14.2764 160.705C18.0627 156.963 20.1904 151.887 20.1904 146.595C20.1904 141.302 18.0627 136.227 14.2764 132.484C10.49 128.742 5.35473 126.64 0 126.64V115.234C5.35459 115.234 10.49 113.132 14.2764 109.39C18.0627 105.647 20.1904 100.571 20.1904 95.2783C20.1903 89.986 18.0627 84.9102 14.2764 81.168C10.49 77.4257 5.35468 75.3232 0 75.3232V63.9014C5.35458 63.9014 10.49 61.7988 14.2764 58.0566C18.0627 54.3143 20.1904 49.2378 20.1904 43.9453C20.1903 38.6529 18.0627 33.5772 14.2764 29.835C10.49 26.0927 5.35467 23.9902 0 23.9902H0.0429688V0H796.031V15.6768Z" fill="#FFFDF5"></path></svg>